<?xml version="1.0" encoding="UTF-8"?>
<svg width="2330px" height="1000px" viewBox="0 0 2330 1000" version="1.1" xmlns="http://www.w3.org/2000/svg" xmlns:xlink="http://www.w3.org/1999/xlink">
    <title>Logo - Black - Hi Res</title>
    <g id="Page-4" stroke="none" stroke-width="1" fill="none" fill-rule="evenodd">
        <path d="M598.745953,401.869159 C661.343417,465.301403 700,552.560014 700,648.876341 C700,840.857381 546.417999,996.85226 355.78789,999.952959 L351.794872,1000 L55.9064103,1000 L53.7886368,999.957152 C25.6990364,998.864849 2.91897298,977.055078 0.259511447,949.358611 L0.0948727733,947.216752 L-1.13686838e-13,943.925234 L-1.13686838e-13,619.583805 L311.92,619.584345 L316.847127,619.5443 C451.184124,617.359238 563.908829,525.982205 598.745953,401.869159 Z M1242.65225,302.5 L1243.64375,302.502742 C1276.2997,302.683692 1302.65548,311.821667 1322.7111,329.916667 C1342.57972,348.194444 1352.51403,371.527778 1352.51403,399.916667 C1352.51403,431.416667 1340.24223,456.694444 1315.69865,475.75 C1339.46307,482.75 1357.96816,495.097222 1371.2139,512.791667 C1384.45965,530.486111 1391.08252,551.777778 1391.08252,576.666667 C1391.08252,609.333333 1379.97947,635.972222 1357.77337,656.583333 C1335.56726,677.194444 1305.95913,687.5 1268.94895,687.5 L1268.94895,687.5 L1110,687.5 L1110,302.5 L1242.65225,302.5 Z M1619.90557,302.5 L1619.90557,687.5 L1574.32462,687.5 L1574.32462,302.5 L1619.90557,302.5 Z M1856.32544,302.5 L1952.16231,452.416667 L2047.41481,302.5 L2100.00821,302.5 L1978.45901,490.916667 L2109.35815,687.5 L2056.18037,687.5 L1952.16231,529.416667 L1847.55987,687.5 L1794.3821,687.5 L1927.03435,490.333333 L1803.73204,302.5 L1856.32544,302.5 Z M2330,302.5 L2330,687.5 L2284.41905,687.5 L2284.41905,302.5 L2330,302.5 Z M1264.27398,504.333333 L1155.58095,504.333333 L1155.58095,646.666667 L1264.27398,646.666667 C1289.20715,646.666667 1308.68619,640.25 1322.7111,627.416667 C1337.12559,614.583333 1344.33283,597.277778 1344.33283,575.5 C1344.33283,553.722222 1337.22298,536.416667 1323.00328,523.583333 C1308.78359,510.75 1289.20715,504.333333 1264.27398,504.333333 L1264.27398,504.333333 Z M298.666667,0 C463.615712,0 597.333333,133.89615 597.333333,299.065421 C597.333333,462.582999 466.276693,595.449791 303.605666,598.090775 L298.666667,598.130841 L-1.13686838e-13,598.130841 L-1.13686838e-13,299.065421 L0.0400128002,294.119827 C2.67747557,131.231616 135.367112,0 298.666667,0 Z M1237.97728,343.333333 L1155.58095,343.333333 L1155.58095,462.916667 L1237.97728,462.916667 C1259.79381,462.916667 1276.54578,457.569444 1288.2332,446.875 C1299.92062,436.180556 1305.76434,421.5 1305.76434,402.833333 C1305.76434,384.166667 1299.92062,369.583333 1288.2332,359.083333 C1276.54578,348.583333 1259.79381,343.333333 1237.97728,343.333333 L1237.97728,343.333333 Z" id="Logo---Black---Hi-Res" fill="#000000" fill-rule="nonzero"></path>
    </g>
</svg>