<?xml version="1.0" encoding="UTF-8"?>
<svg width="1404px" height="2003px" viewBox="0 0 1404 2003" version="1.1" xmlns="http://www.w3.org/2000/svg" xmlns:xlink="http://www.w3.org/1999/xlink">
    <title>Mark - Black - Hi Res</title>
    <g id="Page-3" stroke="none" stroke-width="1" fill="none" fill-rule="evenodd">
        <path d="M1200.91331,805 C1326.46594,932.048838 1404,1106.81966 1404,1299.73223 C1404,1684.25225 1095.95839,1996.69537 713.608854,2002.90578 L705.6,2003 L112.132286,2003 L107.884637,2002.91418 C51.5449244,2000.7264 5.8546258,1957.04347 0.520505817,1901.57004 L0.190287677,1897.2801 L0,1890.6875 L0,1241.06203 L625.6224,1241.06311 L635.504809,1240.9829 C904.946443,1236.60643 1131.03999,1053.5868 1200.91331,805 Z M599,0 C929.818565,0 1198,268.181435 1198,599 C1198,926.510379 935.155376,1192.63011 608.90556,1197.91975 L599,1198 L0,1198 L0,599 L0.0802488862,589.09444 C5.36989241,262.844624 271.489621,0 599,0 Z" id="Mark---Black---Hi-Res" fill="#000000" fill-rule="nonzero"></path>
    </g>
</svg>